@startuml
'https://plantuml.com/class-diagram



class Instructor {
-firstName: String
-lastName: String
-officeNumber: String

+Instructor(firstName: String, lastName: String, officeNumber: String)

+getFirstName(): String
+setFirstName(firstName: String): void
+getLastName(): String
+setLastName(lastName: String): void
+getOfficeNumber(): String
+setOfficeNumber(officeNumber: String): void


}

class Textbook {
-title: String
-author: String
-publisher: String

+Textbook(title: String, author: String, publisher: String)

+getTitle(): String
+getAuthor(): String
+getPublisher(): String
+setTitle(title: String): void
+setAuthor(author: String): void
+setPublisher(publisher: String): void

}

class Course {
-name: String
-instructors: ArrayList<Instructor>
-textbooks: ArrayList<Textbook>

+Course(name: String)

+getName(): String
+setName(name: String): void
+getInstructors(): ArrayList<Instructor>
+getTextBooks(): ArrayList<Textbook>
+setTextbook(textbook: Textbook): void
+setInstructor(instructor: Instructor): void

+printCourseInfo(): void
}

Course o-- Instructor
Course o-- Textbook

@enduml