@startuml
'https://plantuml.com/class-diagram

class Ship {
#name: String
#yearBuilt : String

+Ship(name: String, yearBuilt: String)

+getName(): String
+setName(name: String): void
+getYearBuilt(): String
+setYearBuilt(yearBuilt: String): void

+printInfo(): void
}

class CruiseShip{
-maxNumberPassengers: int

+getMaxNumberPassengers(): int
+setMaxNumberPassengers(maxNumberPassengers: int): void

+printInfo(): void
}

class CargoShip{
-cargoCapacityInTonnage: int

+setCargoCapacityInTonnage(cargoCapacityInTonnage: int): void
+getCargoCapacityInTonnage(): int

+printInfo(): void
}

Ship <|-- CruiseShip
Ship <|-- CargoShip
@enduml