@startuml
'https://plantuml.com/class-diagram

class Employee {
-firstName: String
-lastName: String
-socialSecurityNumber: String

'Constructor
+Employee(firstName: String, lastName: String, socialSecurityNumber: String)

'Getter setter methods
+getFirstName(): String
+setFirstName(firstName: String): void
+getLastName(): String
+setLastName(lastName: String): void
+getSocialSecurityNumber(): String
+setSocialSecurityNumber(socialSecurityNumber: String): void

'Print function
+printInfo(): void
}





class SalariedEmployee{
-weeklySalary: double
+getWeeklySalary(): double
+setWeeklySalary(weeklySalary: double): void

+printInfo(): void
}


class HourlyEmployee{
-wage: double
-hoursWorked: int

'Getter setter methods
+getWage(): double
+setWage(wage: double): void
+getHoursWorked(): int
+setHoursWorked(hoursWorked: int): void

+printInfo(): void
}

class CommissionEmployee{
-commissionRate: int
-grossSales: int

'Getter setter methods
+getCommissionRate(): int
+setCommissionRate(commissionRate: int): void
+getGrossSales(): int
+setGrossSales(grossSales: int): void

+printInfo(): void
}

class BaseEmployee{
-baseSalary: double

+getBaseSalary(): double
+setBaseSalary(baseSalary: double): void

+printInfo(): void
}

Employee <|-- SalariedEmployee
Employee <|-- HourlyEmployee
Employee <|-- CommissionEmployee
Employee <|-- BaseEmployee
@enduml