@startuml
'https://plantuml.com/class-diagram



class Folder {
-name: String
-files: ArrayString<File>
-folders: ArrayString<Folder>

+Folder(name: String)

+getName(): String
+setName(FolderName: String): void
+addSubFolder(subFolderName: String): void
+removeSubFolder(folderName: string): void
+addFile(fileName: String): void
+removeFile(file: File): void

+printFolder(): void

}

class File{
-name: String

+File(name: String)

+setName(FileName: String): void
+getName(): String

+printFile(): void
}

Folder  *-- File
Folder  *-- Folder

@enduml